# Niyanta Digital Twin Asset: tree_pine
v -1.0000 0.0000 -1.0000
v 1.0000 0.0000 -1.0000
v 1.0000 8.0000 -1.0000
v -1.0000 8.0000 -1.0000
v -1.0000 0.0000 1.0000
v 1.0000 0.0000 1.0000
v 1.0000 8.0000 1.0000
v -1.0000 8.0000 1.0000
v -6.0000 8.0000 -6.0000
v 6.0000 8.0000 -6.0000
v 6.0000 8.0000 6.0000
v -6.0000 8.0000 6.0000
v 0.0000 16.0000 0.0000
v -4.5000 13.0000 -4.5000
v 4.5000 13.0000 -4.5000
v 4.5000 13.0000 4.5000
v -4.5000 13.0000 4.5000
v 0.0000 21.0000 0.0000
v -3.0000 18.0000 -3.0000
v 3.0000 18.0000 -3.0000
v 3.0000 18.0000 3.0000
v -3.0000 18.0000 3.0000
v 0.0000 26.0000 0.0000
g tree_pine
f 1 2 3 4
f 6 5 8 7
f 5 1 4 8
f 2 6 7 3
f 4 3 7 8
f 5 6 2 1
f 9 10 13
f 10 11 13
f 11 12 13
f 12 9 13
f 9 12 11 10
f 14 15 18
f 15 16 18
f 16 17 18
f 17 14 18
f 14 17 16 15
f 19 20 23
f 20 21 23
f 21 22 23
f 22 19 23
f 19 22 21 20
