# Niyanta Digital Twin Asset: bridge
v -60.0000 0.0000 -7.5000
v 60.0000 0.0000 -7.5000
v 60.0000 3.0000 -7.5000
v -60.0000 3.0000 -7.5000
v -60.0000 0.0000 7.5000
v 60.0000 0.0000 7.5000
v 60.0000 3.0000 7.5000
v -60.0000 3.0000 7.5000
v -42.5000 -18.0000 -2.5000
v -37.5000 -18.0000 -2.5000
v -37.5000 0.0000 -2.5000
v -42.5000 0.0000 -2.5000
v -42.5000 -18.0000 2.5000
v -37.5000 -18.0000 2.5000
v -37.5000 0.0000 2.5000
v -42.5000 0.0000 2.5000
v 37.5000 -18.0000 -2.5000
v 42.5000 -18.0000 -2.5000
v 42.5000 0.0000 -2.5000
v 37.5000 0.0000 -2.5000
v 37.5000 -18.0000 2.5000
v 42.5000 -18.0000 2.5000
v 42.5000 0.0000 2.5000
v 37.5000 0.0000 2.5000
g bridge
f 1 2 3 4
f 6 5 8 7
f 5 1 4 8
f 2 6 7 3
f 4 3 7 8
f 5 6 2 1
f 9 10 11 12
f 14 13 16 15
f 13 9 12 16
f 10 14 15 11
f 12 11 15 16
f 13 14 10 9
f 17 18 19 20
f 22 21 24 23
f 21 17 20 24
f 18 22 23 19
f 20 19 23 24
f 21 22 18 17
