# Niyanta Digital Twin Asset: dam_concrete
v -200.0000 0.0000 0.0000
v -30.0000 0.0000 0.0000
v -30.0000 60.0000 0.0000
v -200.0000 60.0000 0.0000
v -200.0000 0.0000 30.0000
v -30.0000 0.0000 30.0000
v -30.0000 60.0000 30.0000
v -200.0000 60.0000 30.0000
v 30.0000 0.0000 0.0000
v 200.0000 0.0000 0.0000
v 200.0000 60.0000 0.0000
v 30.0000 60.0000 0.0000
v 30.0000 0.0000 30.0000
v 200.0000 0.0000 30.0000
v 200.0000 60.0000 30.0000
v 30.0000 60.0000 30.0000
v -30.0000 30.0000 0.0000
v 30.0000 30.0000 0.0000
v 30.0000 60.0000 0.0000
v -30.0000 60.0000 0.0000
v -30.0000 30.0000 30.0000
v 30.0000 30.0000 30.0000
v 30.0000 60.0000 30.0000
v -30.0000 60.0000 30.0000
v -200.0000 -8.0000 -10.0000
v 200.0000 -8.0000 -10.0000
v 200.0000 0.0000 -10.0000
v -200.0000 0.0000 -10.0000
v -200.0000 -8.0000 40.0000
v 200.0000 -8.0000 40.0000
v 200.0000 0.0000 40.0000
v -200.0000 0.0000 40.0000
g dam_concrete
f 1 2 3 4
f 6 5 8 7
f 5 1 4 8
f 2 6 7 3
f 4 3 7 8
f 5 6 2 1
f 9 10 11 12
f 14 13 16 15
f 13 9 12 16
f 10 14 15 11
f 12 11 15 16
f 13 14 10 9
f 17 18 19 20
f 22 21 24 23
f 21 17 20 24
f 18 22 23 19
f 20 19 23 24
f 21 22 18 17
f 25 26 27 28
f 30 29 32 31
f 29 25 28 32
f 26 30 31 27
f 28 27 31 32
f 29 30 26 25
