# Niyanta Digital Twin Asset: house_small
v -10.0000 0.0000 -10.0000
v 10.0000 0.0000 -10.0000
v 10.0000 10.0000 -10.0000
v -10.0000 10.0000 -10.0000
v -10.0000 0.0000 10.0000
v 10.0000 0.0000 10.0000
v 10.0000 10.0000 10.0000
v -10.0000 10.0000 10.0000
v -10.0000 10.0000 -10.0000
v 10.0000 10.0000 -10.0000
v 10.0000 10.0000 10.0000
v -10.0000 10.0000 10.0000
v 0.0000 17.0000 -10.0000
v 0.0000 17.0000 10.0000
g house_small
f 1 2 3 4
f 6 5 8 7
f 5 1 4 8
f 2 6 7 3
f 4 3 7 8
f 5 6 2 1
f 9 10 13
f 11 12 14
f 12 9 13 14
f 10 11 14 13
